<mxfile host="app.diagrams.net" agent="Mozilla/5.0 (Windows NT 10.0; Win64; x64) AppleWebKit/537.36 (KHTML, like Gecko) Chrome/132.0.0.0 Safari/537.36" version="26.0.8">
  <diagram name="Page-1" id="k-P0Dg9uhMss6Fge-bEl">
    <mxGraphModel grid="1" page="1" gridSize="10" guides="1" tooltips="1" connect="1" arrows="1" fold="1" pageScale="1" pageWidth="850" pageHeight="1100" math="0" shadow="0">
      <root>
        <mxCell id="0" />
        <mxCell id="1" parent="0" />
        <mxCell id="sQpi-HUl-UVFbco0kwgm-92" value="" style="rounded=0;whiteSpace=wrap;html=1;fillColor=light-dark(#FFCCCC,var(--ge-dark-color, #121212));" vertex="1" parent="1">
          <mxGeometry x="-12410" y="-9250" width="430" height="570" as="geometry" />
        </mxCell>
        <mxCell id="bscVMvm17ffWbcOlfLfP-103" value="2 Entities" style="rounded=0;whiteSpace=wrap;html=1;" vertex="1" parent="1">
          <mxGeometry x="-13760" y="-9730" width="120" height="60" as="geometry" />
        </mxCell>
        <mxCell id="bscVMvm17ffWbcOlfLfP-102" value="" style="shape=ext;double=1;rounded=0;whiteSpace=wrap;html=1;fillColor=light-dark(#FFFFCC,var(--ge-dark-color, #121212));" vertex="1" parent="1">
          <mxGeometry x="-14020" y="-9670" width="680" height="240" as="geometry" />
        </mxCell>
        <mxCell id="sQpi-HUl-UVFbco0kwgm-53" value="" style="rounded=0;whiteSpace=wrap;html=1;" vertex="1" parent="1">
          <mxGeometry x="-12916" y="-9080" width="370" height="270" as="geometry" />
        </mxCell>
        <mxCell id="sQpi-HUl-UVFbco0kwgm-2" value="" style="rounded=0;whiteSpace=wrap;html=1;" vertex="1" parent="1">
          <mxGeometry x="-14430" y="-9251" width="360" height="640" as="geometry" />
        </mxCell>
        <mxCell id="sQpi-HUl-UVFbco0kwgm-49" value="server" style="rounded=0;whiteSpace=wrap;html=1;fillColor=#ffe6cc;strokeColor=#d79b00;" vertex="1" parent="1">
          <mxGeometry x="-14290" y="-8550" width="2420" height="390" as="geometry" />
        </mxCell>
        <mxCell id="sQpi-HUl-UVFbco0kwgm-1" value="logo" style="rounded=0;whiteSpace=wrap;html=1;" vertex="1" parent="1">
          <mxGeometry x="-14320" y="-9210" width="140" height="145" as="geometry" />
        </mxCell>
        <mxCell id="sQpi-HUl-UVFbco0kwgm-3" style="edgeStyle=orthogonalEdgeStyle;rounded=0;orthogonalLoop=1;jettySize=auto;html=1;entryX=0.074;entryY=1.001;entryDx=0;entryDy=0;entryPerimeter=0;" edge="1" parent="1" source="sQpi-HUl-UVFbco0kwgm-4" target="sQpi-HUl-UVFbco0kwgm-6">
          <mxGeometry relative="1" as="geometry">
            <mxPoint x="-13950" y="-8669" as="targetPoint" />
            <Array as="points">
              <mxPoint x="-14340" y="-8630" />
              <mxPoint x="-13978" y="-8630" />
            </Array>
          </mxGeometry>
        </mxCell>
        <mxCell id="sQpi-HUl-UVFbco0kwgm-4" value="register" style="rounded=1;whiteSpace=wrap;html=1;fillColor=#dae8fc;strokeColor=#6c8ebf;" vertex="1" parent="1">
          <mxGeometry x="-14400" y="-8760" width="120" height="40" as="geometry" />
        </mxCell>
        <mxCell id="sQpi-HUl-UVFbco0kwgm-5" value="login" style="rounded=1;whiteSpace=wrap;html=1;fillColor=#dae8fc;strokeColor=#6c8ebf;" vertex="1" parent="1">
          <mxGeometry x="-14240" y="-8760" width="120" height="40" as="geometry" />
        </mxCell>
        <mxCell id="sQpi-HUl-UVFbco0kwgm-6" value="" style="rounded=0;whiteSpace=wrap;html=1;" vertex="1" parent="1">
          <mxGeometry x="-14010" y="-9250" width="430" height="570" as="geometry" />
        </mxCell>
        <mxCell id="sQpi-HUl-UVFbco0kwgm-7" value="register" style="text;html=1;align=center;verticalAlign=middle;whiteSpace=wrap;rounded=0;" vertex="1" parent="1">
          <mxGeometry x="-14010" y="-9280" width="60" height="30" as="geometry" />
        </mxCell>
        <mxCell id="sQpi-HUl-UVFbco0kwgm-8" value="register form" style="rounded=0;whiteSpace=wrap;html=1;" vertex="1" parent="1">
          <mxGeometry x="-13890" y="-9080" width="190" height="205" as="geometry" />
        </mxCell>
        <mxCell id="sQpi-HUl-UVFbco0kwgm-9" style="edgeStyle=orthogonalEdgeStyle;rounded=0;orthogonalLoop=1;jettySize=auto;html=1;entryX=0.5;entryY=0;entryDx=0;entryDy=0;" edge="1" parent="1" source="sQpi-HUl-UVFbco0kwgm-10" target="sQpi-HUl-UVFbco0kwgm-12">
          <mxGeometry relative="1" as="geometry" />
        </mxCell>
        <mxCell id="sQpi-HUl-UVFbco0kwgm-10" value="register" style="rounded=1;whiteSpace=wrap;html=1;fillColor=#dae8fc;strokeColor=#6c8ebf;" vertex="1" parent="1">
          <mxGeometry x="-13860" y="-8860" width="120" height="40" as="geometry" />
        </mxCell>
        <mxCell id="sQpi-HUl-UVFbco0kwgm-11" style="edgeStyle=orthogonalEdgeStyle;rounded=0;orthogonalLoop=1;jettySize=auto;html=1;entryX=0;entryY=0.5;entryDx=0;entryDy=0;" edge="1" parent="1" source="sQpi-HUl-UVFbco0kwgm-12" target="sQpi-HUl-UVFbco0kwgm-23">
          <mxGeometry relative="1" as="geometry" />
        </mxCell>
        <mxCell id="sQpi-HUl-UVFbco0kwgm-12" value="handleRegister" style="shape=process;whiteSpace=wrap;html=1;backgroundOutline=1;" vertex="1" parent="1">
          <mxGeometry x="-13860" y="-8750" width="120" height="60" as="geometry" />
        </mxCell>
        <mxCell id="sQpi-HUl-UVFbco0kwgm-13" style="edgeStyle=orthogonalEdgeStyle;rounded=0;orthogonalLoop=1;jettySize=auto;html=1;" edge="1" parent="1" source="sQpi-HUl-UVFbco0kwgm-15" target="sQpi-HUl-UVFbco0kwgm-18">
          <mxGeometry relative="1" as="geometry">
            <mxPoint x="-14030" y="-8450" as="targetPoint" />
          </mxGeometry>
        </mxCell>
        <mxCell id="sQpi-HUl-UVFbco0kwgm-14" value="add user to db" style="edgeLabel;html=1;align=center;verticalAlign=middle;resizable=0;points=[];" connectable="0" vertex="1" parent="sQpi-HUl-UVFbco0kwgm-13">
          <mxGeometry x="0.1965" relative="1" as="geometry">
            <mxPoint as="offset" />
          </mxGeometry>
        </mxCell>
        <mxCell id="sQpi-HUl-UVFbco0kwgm-15" value="register" style="shape=process;whiteSpace=wrap;html=1;backgroundOutline=1;" vertex="1" parent="1">
          <mxGeometry x="-13860" y="-8480" width="120" height="60" as="geometry" />
        </mxCell>
        <mxCell id="sQpi-HUl-UVFbco0kwgm-16" style="edgeStyle=orthogonalEdgeStyle;rounded=0;orthogonalLoop=1;jettySize=auto;html=1;" edge="1" parent="1" source="sQpi-HUl-UVFbco0kwgm-12" target="sQpi-HUl-UVFbco0kwgm-15">
          <mxGeometry relative="1" as="geometry" />
        </mxCell>
        <mxCell id="sQpi-HUl-UVFbco0kwgm-17" style="edgeStyle=orthogonalEdgeStyle;rounded=0;orthogonalLoop=1;jettySize=auto;html=1;" edge="1" parent="1" source="sQpi-HUl-UVFbco0kwgm-18" target="sQpi-HUl-UVFbco0kwgm-37">
          <mxGeometry relative="1" as="geometry">
            <Array as="points">
              <mxPoint x="-13540" y="-8370" />
            </Array>
          </mxGeometry>
        </mxCell>
        <mxCell id="sQpi-HUl-UVFbco0kwgm-18" value="users" style="shape=cylinder3;whiteSpace=wrap;html=1;boundedLbl=1;backgroundOutline=1;size=15;" vertex="1" parent="1">
          <mxGeometry x="-13565" y="-8490" width="60" height="80" as="geometry" />
        </mxCell>
        <mxCell id="sQpi-HUl-UVFbco0kwgm-19" style="edgeStyle=orthogonalEdgeStyle;rounded=0;orthogonalLoop=1;jettySize=auto;html=1;entryX=0.883;entryY=1.05;entryDx=0;entryDy=0;entryPerimeter=0;" edge="1" parent="1" source="sQpi-HUl-UVFbco0kwgm-15" target="sQpi-HUl-UVFbco0kwgm-12">
          <mxGeometry relative="1" as="geometry">
            <Array as="points">
              <mxPoint x="-13754" y="-8500" />
              <mxPoint x="-13754" y="-8500" />
            </Array>
          </mxGeometry>
        </mxCell>
        <mxCell id="sQpi-HUl-UVFbco0kwgm-20" value="ok" style="edgeLabel;html=1;align=center;verticalAlign=middle;resizable=0;points=[];" connectable="0" vertex="1" parent="sQpi-HUl-UVFbco0kwgm-19">
          <mxGeometry x="-0.0981" y="-2" relative="1" as="geometry">
            <mxPoint as="offset" />
          </mxGeometry>
        </mxCell>
        <mxCell id="sQpi-HUl-UVFbco0kwgm-21" style="edgeStyle=orthogonalEdgeStyle;rounded=0;orthogonalLoop=1;jettySize=auto;html=1;entryX=1;entryY=0.5;entryDx=0;entryDy=0;" edge="1" parent="1" source="sQpi-HUl-UVFbco0kwgm-23" target="sQpi-HUl-UVFbco0kwgm-24">
          <mxGeometry relative="1" as="geometry">
            <Array as="points">
              <mxPoint x="-13640" y="-9120" />
            </Array>
          </mxGeometry>
        </mxCell>
        <mxCell id="sQpi-HUl-UVFbco0kwgm-22" value="no" style="edgeLabel;html=1;align=center;verticalAlign=middle;resizable=0;points=[];" connectable="0" vertex="1" parent="sQpi-HUl-UVFbco0kwgm-21">
          <mxGeometry x="-0.0973" relative="1" as="geometry">
            <mxPoint as="offset" />
          </mxGeometry>
        </mxCell>
        <mxCell id="sQpi-HUl-UVFbco0kwgm-23" value="if ok" style="rhombus;whiteSpace=wrap;html=1;" vertex="1" parent="1">
          <mxGeometry x="-13680" y="-8655" width="80" height="80" as="geometry" />
        </mxCell>
        <mxCell id="sQpi-HUl-UVFbco0kwgm-24" value="error display" style="rounded=0;whiteSpace=wrap;html=1;" vertex="1" parent="1">
          <mxGeometry x="-13860" y="-9150" width="120" height="60" as="geometry" />
        </mxCell>
        <mxCell id="sQpi-HUl-UVFbco0kwgm-25" value="" style="rounded=0;whiteSpace=wrap;html=1;" vertex="1" parent="1">
          <mxGeometry x="-13520" y="-9250" width="430" height="570" as="geometry" />
        </mxCell>
        <mxCell id="sQpi-HUl-UVFbco0kwgm-26" value="login" style="text;html=1;align=center;verticalAlign=middle;whiteSpace=wrap;rounded=0;" vertex="1" parent="1">
          <mxGeometry x="-13520" y="-9280" width="60" height="30" as="geometry" />
        </mxCell>
        <mxCell id="sQpi-HUl-UVFbco0kwgm-27" value="login form" style="rounded=0;whiteSpace=wrap;html=1;" vertex="1" parent="1">
          <mxGeometry x="-13400" y="-9080" width="190" height="205" as="geometry" />
        </mxCell>
        <mxCell id="sQpi-HUl-UVFbco0kwgm-28" style="edgeStyle=orthogonalEdgeStyle;rounded=0;orthogonalLoop=1;jettySize=auto;html=1;entryX=0.5;entryY=0;entryDx=0;entryDy=0;" edge="1" parent="1" source="sQpi-HUl-UVFbco0kwgm-29" target="sQpi-HUl-UVFbco0kwgm-31">
          <mxGeometry relative="1" as="geometry" />
        </mxCell>
        <mxCell id="sQpi-HUl-UVFbco0kwgm-29" value="login" style="rounded=1;whiteSpace=wrap;html=1;fillColor=#dae8fc;strokeColor=#6c8ebf;" vertex="1" parent="1">
          <mxGeometry x="-13365" y="-8860" width="120" height="40" as="geometry" />
        </mxCell>
        <mxCell id="sQpi-HUl-UVFbco0kwgm-30" style="edgeStyle=orthogonalEdgeStyle;rounded=0;orthogonalLoop=1;jettySize=auto;html=1;entryX=0.5;entryY=0;entryDx=0;entryDy=0;" edge="1" parent="1" source="sQpi-HUl-UVFbco0kwgm-31" target="sQpi-HUl-UVFbco0kwgm-32">
          <mxGeometry relative="1" as="geometry" />
        </mxCell>
        <mxCell id="sQpi-HUl-UVFbco0kwgm-31" value="handleLogin" style="shape=process;whiteSpace=wrap;html=1;backgroundOutline=1;" vertex="1" parent="1">
          <mxGeometry x="-13365" y="-8645" width="120" height="60" as="geometry" />
        </mxCell>
        <mxCell id="sQpi-HUl-UVFbco0kwgm-32" value="login" style="shape=process;whiteSpace=wrap;html=1;backgroundOutline=1;" vertex="1" parent="1">
          <mxGeometry x="-13365" y="-8480" width="120" height="60" as="geometry" />
        </mxCell>
        <mxCell id="sQpi-HUl-UVFbco0kwgm-33" style="edgeStyle=orthogonalEdgeStyle;rounded=0;orthogonalLoop=1;jettySize=auto;html=1;entryX=1;entryY=0.5;entryDx=0;entryDy=0;entryPerimeter=0;" edge="1" parent="1" source="sQpi-HUl-UVFbco0kwgm-32" target="sQpi-HUl-UVFbco0kwgm-18">
          <mxGeometry relative="1" as="geometry" />
        </mxCell>
        <mxCell id="sQpi-HUl-UVFbco0kwgm-34" value="check if user exist&lt;div&gt;right password&lt;/div&gt;" style="edgeLabel;html=1;align=center;verticalAlign=middle;resizable=0;points=[];" connectable="0" vertex="1" parent="sQpi-HUl-UVFbco0kwgm-33">
          <mxGeometry x="0.0571" y="-1" relative="1" as="geometry">
            <mxPoint as="offset" />
          </mxGeometry>
        </mxCell>
        <mxCell id="sQpi-HUl-UVFbco0kwgm-36" style="edgeStyle=orthogonalEdgeStyle;rounded=0;orthogonalLoop=1;jettySize=auto;html=1;entryX=0;entryY=0.5;entryDx=0;entryDy=0;" edge="1" parent="1" source="sQpi-HUl-UVFbco0kwgm-37" target="sQpi-HUl-UVFbco0kwgm-38">
          <mxGeometry relative="1" as="geometry">
            <Array as="points">
              <mxPoint x="-13440" y="-9120" />
            </Array>
          </mxGeometry>
        </mxCell>
        <mxCell id="bscVMvm17ffWbcOlfLfP-113" style="edgeStyle=orthogonalEdgeStyle;rounded=0;orthogonalLoop=1;jettySize=auto;html=1;entryX=0.334;entryY=0.004;entryDx=0;entryDy=0;entryPerimeter=0;" edge="1" parent="1" source="sQpi-HUl-UVFbco0kwgm-37" target="sQpi-HUl-UVFbco0kwgm-51">
          <mxGeometry relative="1" as="geometry">
            <mxPoint x="-12810" y="-9310" as="targetPoint" />
            <Array as="points">
              <mxPoint x="-13040" y="-8370" />
              <mxPoint x="-13040" y="-9310" />
              <mxPoint x="-12802" y="-9310" />
            </Array>
          </mxGeometry>
        </mxCell>
        <mxCell id="sQpi-HUl-UVFbco0kwgm-37" value="if ok" style="rhombus;whiteSpace=wrap;html=1;" vertex="1" parent="1">
          <mxGeometry x="-13480" y="-8410" width="80" height="80" as="geometry" />
        </mxCell>
        <mxCell id="sQpi-HUl-UVFbco0kwgm-38" value="error display" style="rounded=0;whiteSpace=wrap;html=1;" vertex="1" parent="1">
          <mxGeometry x="-13360" y="-9150" width="120" height="60" as="geometry" />
        </mxCell>
        <mxCell id="sQpi-HUl-UVFbco0kwgm-39" style="edgeStyle=orthogonalEdgeStyle;rounded=0;orthogonalLoop=1;jettySize=auto;html=1;entryX=0.107;entryY=0.995;entryDx=0;entryDy=0;entryPerimeter=0;" edge="1" parent="1" source="sQpi-HUl-UVFbco0kwgm-23" target="sQpi-HUl-UVFbco0kwgm-25">
          <mxGeometry relative="1" as="geometry" />
        </mxCell>
        <mxCell id="sQpi-HUl-UVFbco0kwgm-40" value="navigate to login" style="edgeLabel;html=1;align=center;verticalAlign=middle;resizable=0;points=[];" connectable="0" vertex="1" parent="sQpi-HUl-UVFbco0kwgm-39">
          <mxGeometry x="-0.2262" y="-4" relative="1" as="geometry">
            <mxPoint as="offset" />
          </mxGeometry>
        </mxCell>
        <mxCell id="sQpi-HUl-UVFbco0kwgm-47" style="edgeStyle=orthogonalEdgeStyle;rounded=0;orthogonalLoop=1;jettySize=auto;html=1;entryX=-0.008;entryY=0.801;entryDx=0;entryDy=0;entryPerimeter=0;" edge="1" parent="1" source="sQpi-HUl-UVFbco0kwgm-5" target="sQpi-HUl-UVFbco0kwgm-25">
          <mxGeometry relative="1" as="geometry">
            <Array as="points">
              <mxPoint x="-14180" y="-8793" />
            </Array>
          </mxGeometry>
        </mxCell>
        <mxCell id="sQpi-HUl-UVFbco0kwgm-48" value="Server" style="text;html=1;align=center;verticalAlign=middle;whiteSpace=wrap;rounded=0;" vertex="1" parent="1">
          <mxGeometry x="-14010" y="-8570" width="60" height="30" as="geometry" />
        </mxCell>
        <mxCell id="sQpi-HUl-UVFbco0kwgm-50" value="Home" style="text;html=1;align=center;verticalAlign=middle;whiteSpace=wrap;rounded=0;" vertex="1" parent="1">
          <mxGeometry x="-14410" y="-9280" width="60" height="30" as="geometry" />
        </mxCell>
        <mxCell id="sQpi-HUl-UVFbco0kwgm-51" value="" style="rounded=0;whiteSpace=wrap;html=1;" vertex="1" parent="1">
          <mxGeometry x="-12946" y="-9250" width="430" height="570" as="geometry" />
        </mxCell>
        <mxCell id="sQpi-HUl-UVFbco0kwgm-52" value="Game Home Page" style="text;html=1;align=center;verticalAlign=middle;whiteSpace=wrap;rounded=0;" vertex="1" parent="1">
          <mxGeometry x="-12960" y="-9280" width="116" height="30" as="geometry" />
        </mxCell>
        <mxCell id="bscVMvm17ffWbcOlfLfP-128" style="edgeStyle=orthogonalEdgeStyle;rounded=0;orthogonalLoop=1;jettySize=auto;html=1;entryX=0.5;entryY=0;entryDx=0;entryDy=0;" edge="1" parent="1" source="sQpi-HUl-UVFbco0kwgm-56" target="sQpi-HUl-UVFbco0kwgm-25">
          <mxGeometry relative="1" as="geometry" />
        </mxCell>
        <mxCell id="sQpi-HUl-UVFbco0kwgm-56" value="handleLogout" style="shape=process;whiteSpace=wrap;html=1;backgroundOutline=1;" vertex="1" parent="1">
          <mxGeometry x="-12940" y="-8630" width="120" height="60" as="geometry" />
        </mxCell>
        <mxCell id="bscVMvm17ffWbcOlfLfP-131" style="edgeStyle=orthogonalEdgeStyle;rounded=0;orthogonalLoop=1;jettySize=auto;html=1;" edge="1" parent="1" source="sQpi-HUl-UVFbco0kwgm-57">
          <mxGeometry relative="1" as="geometry">
            <mxPoint x="-12430" y="-9120" as="targetPoint" />
          </mxGeometry>
        </mxCell>
        <mxCell id="sQpi-HUl-UVFbco0kwgm-57" value="error display" style="rounded=0;whiteSpace=wrap;html=1;" vertex="1" parent="1">
          <mxGeometry x="-12800" y="-9150" width="120" height="60" as="geometry" />
        </mxCell>
        <mxCell id="sQpi-HUl-UVFbco0kwgm-60" value="checkUserCookie" style="shape=process;whiteSpace=wrap;html=1;backgroundOutline=1;" vertex="1" parent="1">
          <mxGeometry x="-14330" y="-9030" width="160" height="60" as="geometry" />
        </mxCell>
        <mxCell id="sQpi-HUl-UVFbco0kwgm-61" value="if yes" style="rhombus;whiteSpace=wrap;html=1;" vertex="1" parent="1">
          <mxGeometry x="-14300" y="-8920" width="80" height="80" as="geometry" />
        </mxCell>
        <mxCell id="sQpi-HUl-UVFbco0kwgm-63" style="edgeStyle=orthogonalEdgeStyle;rounded=0;orthogonalLoop=1;jettySize=auto;html=1;" edge="1" parent="1">
          <mxGeometry relative="1" as="geometry">
            <mxPoint x="-14260.48" y="-8952.51" as="sourcePoint" />
            <mxPoint x="-14260" y="-8920" as="targetPoint" />
            <Array as="points" />
          </mxGeometry>
        </mxCell>
        <mxCell id="sQpi-HUl-UVFbco0kwgm-64" value="check user token" style="edgeLabel;html=1;align=center;verticalAlign=middle;resizable=0;points=[];rounded=0;strokeColor=#d79b00;fontFamily=Helvetica;fontSize=12;fontColor=default;fillColor=#ffe6cc;" connectable="0" vertex="1" parent="sQpi-HUl-UVFbco0kwgm-63">
          <mxGeometry x="0.3374" y="3" relative="1" as="geometry">
            <mxPoint x="-3" y="-35" as="offset" />
          </mxGeometry>
        </mxCell>
        <mxCell id="sQpi-HUl-UVFbco0kwgm-70" value="" style="endArrow=classic;html=1;rounded=0;fontFamily=Helvetica;fontSize=12;fontColor=default;entryX=0.25;entryY=0;entryDx=0;entryDy=0;" edge="1" parent="1" target="sQpi-HUl-UVFbco0kwgm-51">
          <mxGeometry width="50" height="50" relative="1" as="geometry">
            <mxPoint x="-14210" y="-8880" as="sourcePoint" />
            <mxPoint x="-12860" y="-9340" as="targetPoint" />
            <Array as="points">
              <mxPoint x="-14050" y="-8880" />
              <mxPoint x="-14050" y="-9330" />
              <mxPoint x="-12840" y="-9330" />
            </Array>
          </mxGeometry>
        </mxCell>
        <mxCell id="sQpi-HUl-UVFbco0kwgm-73" value="navigate to game" style="edgeLabel;html=1;align=center;verticalAlign=middle;resizable=0;points=[];" connectable="0" vertex="1" parent="1">
          <mxGeometry x="-14170" y="-8870" as="geometry" />
        </mxCell>
        <mxCell id="sQpi-HUl-UVFbco0kwgm-74" value="" style="endArrow=classic;html=1;rounded=0;fontFamily=Helvetica;fontSize=12;fontColor=default;entryX=0.611;entryY=0.752;entryDx=0;entryDy=0;entryPerimeter=0;" edge="1" parent="1" target="sQpi-HUl-UVFbco0kwgm-2">
          <mxGeometry width="50" height="50" relative="1" as="geometry">
            <mxPoint x="-14260" y="-8840" as="sourcePoint" />
            <mxPoint x="-14230" y="-8745" as="targetPoint" />
          </mxGeometry>
        </mxCell>
        <mxCell id="sQpi-HUl-UVFbco0kwgm-76" value="" style="endArrow=classic;html=1;rounded=0;fontFamily=Helvetica;fontSize=12;fontColor=default;entryX=0.361;entryY=0.752;entryDx=0;entryDy=0;entryPerimeter=0;" edge="1" parent="1" target="sQpi-HUl-UVFbco0kwgm-2">
          <mxGeometry width="50" height="50" relative="1" as="geometry">
            <mxPoint x="-14260" y="-8840" as="sourcePoint" />
            <mxPoint x="-14329" y="-8763" as="targetPoint" />
            <Array as="points">
              <mxPoint x="-14260" y="-8840" />
            </Array>
          </mxGeometry>
        </mxCell>
        <mxCell id="sQpi-HUl-UVFbco0kwgm-78" value="if no" style="edgeLabel;html=1;align=center;verticalAlign=middle;resizable=0;points=[];" connectable="0" vertex="1" parent="1">
          <mxGeometry x="-14260" y="-8820" as="geometry">
            <mxPoint x="1" y="6" as="offset" />
          </mxGeometry>
        </mxCell>
        <mxCell id="sQpi-HUl-UVFbco0kwgm-79" value="title" style="rounded=0;whiteSpace=wrap;html=1;" vertex="1" parent="1">
          <mxGeometry x="-12800" y="-9210" width="120" height="60" as="geometry" />
        </mxCell>
        <mxCell id="sQpi-HUl-UVFbco0kwgm-89" style="edgeStyle=orthogonalEdgeStyle;rounded=0;orthogonalLoop=1;jettySize=auto;html=1;fontFamily=Helvetica;fontSize=12;fontColor=default;" edge="1" parent="1" source="sQpi-HUl-UVFbco0kwgm-80">
          <mxGeometry relative="1" as="geometry">
            <mxPoint x="-12880" y="-8630" as="targetPoint" />
          </mxGeometry>
        </mxCell>
        <mxCell id="sQpi-HUl-UVFbco0kwgm-80" value="log out" style="rounded=0;whiteSpace=wrap;html=1;" vertex="1" parent="1">
          <mxGeometry x="-12770" y="-9065" width="60" height="30" as="geometry" />
        </mxCell>
        <mxCell id="sQpi-HUl-UVFbco0kwgm-81" value="start game" style="rounded=0;whiteSpace=wrap;html=1;" vertex="1" parent="1">
          <mxGeometry x="-12770" y="-9015" width="60" height="30" as="geometry" />
        </mxCell>
        <mxCell id="sQpi-HUl-UVFbco0kwgm-88" value="" style="endArrow=classic;html=1;rounded=0;fontFamily=Helvetica;fontSize=12;fontColor=default;exitX=1;exitY=0.5;exitDx=0;exitDy=0;" edge="1" parent="1" source="sQpi-HUl-UVFbco0kwgm-81">
          <mxGeometry width="50" height="50" relative="1" as="geometry">
            <mxPoint x="-12690" y="-9050" as="sourcePoint" />
            <mxPoint x="-12280" y="-9260" as="targetPoint" />
            <Array as="points">
              <mxPoint x="-12610" y="-9000" />
              <mxPoint x="-12600" y="-9000" />
              <mxPoint x="-12570" y="-9000" />
              <mxPoint x="-12480" y="-9000" />
              <mxPoint x="-12480" y="-9310" />
              <mxPoint x="-12280" y="-9310" />
            </Array>
          </mxGeometry>
        </mxCell>
        <mxCell id="sQpi-HUl-UVFbco0kwgm-91" value="" style="rounded=0;whiteSpace=wrap;html=1;" vertex="1" parent="1">
          <mxGeometry x="-12380" y="-9080" width="370" height="270" as="geometry" />
        </mxCell>
        <mxCell id="bscVMvm17ffWbcOlfLfP-62" style="edgeStyle=orthogonalEdgeStyle;rounded=0;orthogonalLoop=1;jettySize=auto;html=1;" edge="1" parent="1" source="sQpi-HUl-UVFbco0kwgm-92">
          <mxGeometry relative="1" as="geometry">
            <mxPoint x="-12195" y="-8610" as="targetPoint" />
          </mxGeometry>
        </mxCell>
        <mxCell id="bscVMvm17ffWbcOlfLfP-64" value="" style="edgeStyle=orthogonalEdgeStyle;rounded=0;orthogonalLoop=1;jettySize=auto;html=1;" edge="1" parent="1" source="sQpi-HUl-UVFbco0kwgm-92" target="bscVMvm17ffWbcOlfLfP-63">
          <mxGeometry relative="1" as="geometry" />
        </mxCell>
        <mxCell id="sQpi-HUl-UVFbco0kwgm-94" value="StarShip Game Title" style="rounded=0;whiteSpace=wrap;html=1;" vertex="1" parent="1">
          <mxGeometry x="-12264" y="-9210" width="124" height="60" as="geometry" />
        </mxCell>
        <mxCell id="sQpi-HUl-UVFbco0kwgm-101" value="StarShip Game" style="text;html=1;align=center;verticalAlign=middle;whiteSpace=wrap;rounded=0;" vertex="1" parent="1">
          <mxGeometry x="-12410" y="-9280" width="116" height="30" as="geometry" />
        </mxCell>
        <mxCell id="sQpi-HUl-UVFbco0kwgm-102" value="game canvas" style="rounded=0;whiteSpace=wrap;html=1;fillColor=light-dark(#E0E89D,var(--ge-dark-color, #121212));" vertex="1" parent="1">
          <mxGeometry x="-12350" y="-9080" width="300" height="290" as="geometry" />
        </mxCell>
        <mxCell id="sQpi-HUl-UVFbco0kwgm-103" value="navigate to the game" style="edgeLabel;html=1;align=center;verticalAlign=middle;resizable=0;points=[];" connectable="0" vertex="1" parent="1">
          <mxGeometry x="-12640" y="-8990" as="geometry" />
        </mxCell>
        <mxCell id="bscVMvm17ffWbcOlfLfP-19" value="modal (HOC)" style="rounded=0;whiteSpace=wrap;html=1;fontFamily=Helvetica;fontSize=11;labelBackgroundColor=default;fillColor=#d5e8d4;strokeColor=#82b366;" vertex="1" parent="1">
          <mxGeometry x="-11790" y="-9200" width="210" height="150" as="geometry" />
        </mxCell>
        <mxCell id="bscVMvm17ffWbcOlfLfP-75" value="" style="edgeStyle=orthogonalEdgeStyle;rounded=0;orthogonalLoop=1;jettySize=auto;html=1;" edge="1" parent="1" source="bscVMvm17ffWbcOlfLfP-22" target="bscVMvm17ffWbcOlfLfP-31">
          <mxGeometry relative="1" as="geometry" />
        </mxCell>
        <mxCell id="bscVMvm17ffWbcOlfLfP-22" value="game playAgain/homePage" style="text;html=1;align=center;verticalAlign=middle;whiteSpace=wrap;rounded=0;fontFamily=Helvetica;fontSize=11;fontColor=default;labelBackgroundColor=default;" vertex="1" parent="1">
          <mxGeometry x="-11790" y="-9230" width="180" height="30" as="geometry" />
        </mxCell>
        <mxCell id="bscVMvm17ffWbcOlfLfP-26" value="HOC" style="rounded=0;whiteSpace=wrap;html=1;fontFamily=Helvetica;fontSize=11;labelBackgroundColor=default;fillColor=#d5e8d4;strokeColor=#82b366;" vertex="1" parent="1">
          <mxGeometry x="-11900" y="-9210" width="100" height="30" as="geometry" />
        </mxCell>
        <mxCell id="bscVMvm17ffWbcOlfLfP-27" value="Context" style="rounded=0;whiteSpace=wrap;html=1;fontFamily=Helvetica;fontSize=11;labelBackgroundColor=default;fillColor=#f8cecc;strokeColor=#b85450;" vertex="1" parent="1">
          <mxGeometry x="-12072.5" y="-9300" width="100" height="40" as="geometry" />
        </mxCell>
        <mxCell id="bscVMvm17ffWbcOlfLfP-31" value="&lt;span style=&quot;color: rgb(206, 145, 120); background-color: rgb(31, 31, 31); font-family: Consolas, &amp;quot;Courier New&amp;quot;, monospace; font-size: 14px; white-space: pre;&quot;&gt;api/scores/get-user-high-scores&lt;/span&gt;" style="text;html=1;align=center;verticalAlign=middle;whiteSpace=wrap;rounded=0;fontFamily=Helvetica;fontSize=11;fontColor=#6D24FF;labelBackgroundColor=default;" vertex="1" parent="1">
          <mxGeometry x="-11810" y="-9270" width="250" height="30" as="geometry" />
        </mxCell>
        <mxCell id="bscVMvm17ffWbcOlfLfP-35" value="user high score" style="text;html=1;align=center;verticalAlign=middle;whiteSpace=wrap;rounded=0;fontFamily=Helvetica;fontSize=11;fontColor=default;labelBackgroundColor=default;" vertex="1" parent="1">
          <mxGeometry x="-11775" y="-9164" width="180" height="30" as="geometry" />
        </mxCell>
        <mxCell id="bscVMvm17ffWbcOlfLfP-71" style="edgeStyle=orthogonalEdgeStyle;rounded=0;orthogonalLoop=1;jettySize=auto;html=1;" edge="1" parent="1" source="bscVMvm17ffWbcOlfLfP-36" target="sQpi-HUl-UVFbco0kwgm-92">
          <mxGeometry relative="1" as="geometry">
            <mxPoint x="-12120" y="-9260" as="targetPoint" />
            <Array as="points">
              <mxPoint x="-11920" y="-9090" />
              <mxPoint x="-11920" y="-9380" />
              <mxPoint x="-12195" y="-9380" />
            </Array>
          </mxGeometry>
        </mxCell>
        <mxCell id="bscVMvm17ffWbcOlfLfP-36" value="playAgain" style="rounded=0;whiteSpace=wrap;html=1;" vertex="1" parent="1">
          <mxGeometry x="-11775" y="-9105" width="60" height="30" as="geometry" />
        </mxCell>
        <mxCell id="bscVMvm17ffWbcOlfLfP-69" style="edgeStyle=orthogonalEdgeStyle;rounded=0;orthogonalLoop=1;jettySize=auto;html=1;" edge="1" parent="1">
          <mxGeometry relative="1" as="geometry">
            <mxPoint x="-12546" y="-9250.08" as="targetPoint" />
            <mxPoint x="-11570" y="-9090" as="sourcePoint" />
            <Array as="points">
              <mxPoint x="-11480" y="-9090" />
              <mxPoint x="-11480" y="-9340" />
              <mxPoint x="-12546" y="-9340" />
            </Array>
          </mxGeometry>
        </mxCell>
        <mxCell id="bscVMvm17ffWbcOlfLfP-37" value="Home" style="rounded=0;whiteSpace=wrap;html=1;" vertex="1" parent="1">
          <mxGeometry x="-11680" y="-9105" width="60" height="30" as="geometry" />
        </mxCell>
        <mxCell id="bscVMvm17ffWbcOlfLfP-73" style="edgeStyle=orthogonalEdgeStyle;rounded=0;orthogonalLoop=1;jettySize=auto;html=1;" edge="1" parent="1" source="bscVMvm17ffWbcOlfLfP-38">
          <mxGeometry relative="1" as="geometry">
            <mxPoint x="-12690" y="-9260" as="targetPoint" />
            <Array as="points">
              <mxPoint x="-11620" y="-9370" />
              <mxPoint x="-12690" y="-9370" />
            </Array>
          </mxGeometry>
        </mxCell>
        <mxCell id="bscVMvm17ffWbcOlfLfP-38" value="Cancel" style="rounded=0;whiteSpace=wrap;html=1;" vertex="1" parent="1">
          <mxGeometry x="-11650" y="-9194" width="60" height="30" as="geometry" />
        </mxCell>
        <mxCell id="bscVMvm17ffWbcOlfLfP-122" style="edgeStyle=orthogonalEdgeStyle;rounded=0;orthogonalLoop=1;jettySize=auto;html=1;entryX=0;entryY=0.5;entryDx=0;entryDy=0;" edge="1" parent="1" source="bscVMvm17ffWbcOlfLfP-39" target="bscVMvm17ffWbcOlfLfP-114">
          <mxGeometry relative="1" as="geometry">
            <Array as="points">
              <mxPoint x="-12740" y="-8410" />
              <mxPoint x="-12870" y="-8410" />
              <mxPoint x="-12870" y="-8340" />
            </Array>
          </mxGeometry>
        </mxCell>
        <mxCell id="bscVMvm17ffWbcOlfLfP-39" value="Assets" style="childLayout=tableLayout;recursiveResize=0;strokeColor=#98bf21;fillColor=#A7C942;shadow=1;" vertex="1" parent="1">
          <mxGeometry x="-12850" y="-8920" width="220" height="160" as="geometry" />
        </mxCell>
        <mxCell id="bscVMvm17ffWbcOlfLfP-40" style="shape=tableRow;horizontal=0;startSize=0;swimlaneHead=0;swimlaneBody=0;top=0;left=0;bottom=0;right=0;dropTarget=0;collapsible=0;recursiveResize=0;expand=0;fontStyle=0;strokeColor=inherit;fillColor=#ffffff;" vertex="1" parent="bscVMvm17ffWbcOlfLfP-39">
          <mxGeometry width="220" height="33" as="geometry" />
        </mxCell>
        <mxCell id="bscVMvm17ffWbcOlfLfP-41" value="Rank" style="connectable=0;recursiveResize=0;strokeColor=inherit;fillColor=#A7C942;align=center;fontStyle=1;fontColor=#FFFFFF;html=1;" vertex="1" parent="bscVMvm17ffWbcOlfLfP-40">
          <mxGeometry width="60" height="33" as="geometry">
            <mxRectangle width="60" height="33" as="alternateBounds" />
          </mxGeometry>
        </mxCell>
        <mxCell id="bscVMvm17ffWbcOlfLfP-42" value="UserName&amp;nbsp;" style="connectable=0;recursiveResize=0;strokeColor=inherit;fillColor=#A7C942;align=center;fontStyle=1;fontColor=#FFFFFF;html=1;" vertex="1" parent="bscVMvm17ffWbcOlfLfP-40">
          <mxGeometry x="60" width="60" height="33" as="geometry">
            <mxRectangle width="60" height="33" as="alternateBounds" />
          </mxGeometry>
        </mxCell>
        <mxCell id="bscVMvm17ffWbcOlfLfP-43" value="MaxScore" style="connectable=0;recursiveResize=0;strokeColor=inherit;fillColor=#A7C942;align=center;fontStyle=1;fontColor=#FFFFFF;html=1;" vertex="1" parent="bscVMvm17ffWbcOlfLfP-40">
          <mxGeometry x="120" width="100" height="33" as="geometry">
            <mxRectangle width="100" height="33" as="alternateBounds" />
          </mxGeometry>
        </mxCell>
        <mxCell id="bscVMvm17ffWbcOlfLfP-44" value="" style="shape=tableRow;horizontal=0;startSize=0;swimlaneHead=0;swimlaneBody=0;top=0;left=0;bottom=0;right=0;dropTarget=0;collapsible=0;recursiveResize=0;expand=0;fontStyle=0;strokeColor=inherit;fillColor=#ffffff;" vertex="1" parent="bscVMvm17ffWbcOlfLfP-39">
          <mxGeometry y="33" width="220" height="32" as="geometry" />
        </mxCell>
        <mxCell id="bscVMvm17ffWbcOlfLfP-45" value="user 1" style="connectable=0;recursiveResize=0;strokeColor=inherit;fillColor=inherit;align=center;whiteSpace=wrap;html=1;" vertex="1" parent="bscVMvm17ffWbcOlfLfP-44">
          <mxGeometry width="60" height="32" as="geometry">
            <mxRectangle width="60" height="32" as="alternateBounds" />
          </mxGeometry>
        </mxCell>
        <mxCell id="bscVMvm17ffWbcOlfLfP-46" value="name" style="connectable=0;recursiveResize=0;strokeColor=inherit;fillColor=inherit;align=center;whiteSpace=wrap;html=1;" vertex="1" parent="bscVMvm17ffWbcOlfLfP-44">
          <mxGeometry x="60" width="60" height="32" as="geometry">
            <mxRectangle width="60" height="32" as="alternateBounds" />
          </mxGeometry>
        </mxCell>
        <mxCell id="bscVMvm17ffWbcOlfLfP-47" value="23" style="connectable=0;recursiveResize=0;strokeColor=inherit;fillColor=inherit;align=center;whiteSpace=wrap;html=1;" vertex="1" parent="bscVMvm17ffWbcOlfLfP-44">
          <mxGeometry x="120" width="100" height="32" as="geometry">
            <mxRectangle width="100" height="32" as="alternateBounds" />
          </mxGeometry>
        </mxCell>
        <mxCell id="bscVMvm17ffWbcOlfLfP-48" value="" style="shape=tableRow;horizontal=0;startSize=0;swimlaneHead=0;swimlaneBody=0;top=0;left=0;bottom=0;right=0;dropTarget=0;collapsible=0;recursiveResize=0;expand=0;fontStyle=1;strokeColor=inherit;fillColor=#EAF2D3;" vertex="1" parent="bscVMvm17ffWbcOlfLfP-39">
          <mxGeometry y="65" width="220" height="31" as="geometry" />
        </mxCell>
        <mxCell id="bscVMvm17ffWbcOlfLfP-49" value="user 2" style="connectable=0;recursiveResize=0;strokeColor=inherit;fillColor=inherit;whiteSpace=wrap;html=1;" vertex="1" parent="bscVMvm17ffWbcOlfLfP-48">
          <mxGeometry width="60" height="31" as="geometry">
            <mxRectangle width="60" height="31" as="alternateBounds" />
          </mxGeometry>
        </mxCell>
        <mxCell id="bscVMvm17ffWbcOlfLfP-50" value="name" style="connectable=0;recursiveResize=0;strokeColor=inherit;fillColor=inherit;whiteSpace=wrap;html=1;" vertex="1" parent="bscVMvm17ffWbcOlfLfP-48">
          <mxGeometry x="60" width="60" height="31" as="geometry">
            <mxRectangle width="60" height="31" as="alternateBounds" />
          </mxGeometry>
        </mxCell>
        <mxCell id="bscVMvm17ffWbcOlfLfP-51" value="34" style="connectable=0;recursiveResize=0;strokeColor=inherit;fillColor=inherit;whiteSpace=wrap;html=1;" vertex="1" parent="bscVMvm17ffWbcOlfLfP-48">
          <mxGeometry x="120" width="100" height="31" as="geometry">
            <mxRectangle width="100" height="31" as="alternateBounds" />
          </mxGeometry>
        </mxCell>
        <mxCell id="bscVMvm17ffWbcOlfLfP-52" value="" style="shape=tableRow;horizontal=0;startSize=0;swimlaneHead=0;swimlaneBody=0;top=0;left=0;bottom=0;right=0;dropTarget=0;collapsible=0;recursiveResize=0;expand=0;fontStyle=0;strokeColor=inherit;fillColor=#ffffff;" vertex="1" parent="bscVMvm17ffWbcOlfLfP-39">
          <mxGeometry y="96" width="220" height="33" as="geometry" />
        </mxCell>
        <mxCell id="bscVMvm17ffWbcOlfLfP-53" value="user 3" style="connectable=0;recursiveResize=0;strokeColor=inherit;fillColor=inherit;fontStyle=0;align=center;whiteSpace=wrap;html=1;" vertex="1" parent="bscVMvm17ffWbcOlfLfP-52">
          <mxGeometry width="60" height="33" as="geometry">
            <mxRectangle width="60" height="33" as="alternateBounds" />
          </mxGeometry>
        </mxCell>
        <mxCell id="bscVMvm17ffWbcOlfLfP-54" value="name" style="connectable=0;recursiveResize=0;strokeColor=inherit;fillColor=inherit;fontStyle=0;align=center;whiteSpace=wrap;html=1;" vertex="1" parent="bscVMvm17ffWbcOlfLfP-52">
          <mxGeometry x="60" width="60" height="33" as="geometry">
            <mxRectangle width="60" height="33" as="alternateBounds" />
          </mxGeometry>
        </mxCell>
        <mxCell id="bscVMvm17ffWbcOlfLfP-55" value="5" style="connectable=0;recursiveResize=0;strokeColor=inherit;fillColor=inherit;fontStyle=0;align=center;whiteSpace=wrap;html=1;" vertex="1" parent="bscVMvm17ffWbcOlfLfP-52">
          <mxGeometry x="120" width="100" height="33" as="geometry">
            <mxRectangle width="100" height="33" as="alternateBounds" />
          </mxGeometry>
        </mxCell>
        <mxCell id="bscVMvm17ffWbcOlfLfP-56" value="" style="shape=tableRow;horizontal=0;startSize=0;swimlaneHead=0;swimlaneBody=0;top=0;left=0;bottom=0;right=0;dropTarget=0;collapsible=0;recursiveResize=0;expand=0;fontStyle=1;strokeColor=inherit;fillColor=#EAF2D3;" vertex="1" parent="bscVMvm17ffWbcOlfLfP-39">
          <mxGeometry y="129" width="220" height="31" as="geometry" />
        </mxCell>
        <mxCell id="bscVMvm17ffWbcOlfLfP-57" value="user 4" style="connectable=0;recursiveResize=0;strokeColor=inherit;fillColor=inherit;whiteSpace=wrap;html=1;" vertex="1" parent="bscVMvm17ffWbcOlfLfP-56">
          <mxGeometry width="60" height="31" as="geometry">
            <mxRectangle width="60" height="31" as="alternateBounds" />
          </mxGeometry>
        </mxCell>
        <mxCell id="bscVMvm17ffWbcOlfLfP-58" value="name" style="connectable=0;recursiveResize=0;strokeColor=inherit;fillColor=inherit;whiteSpace=wrap;html=1;" vertex="1" parent="bscVMvm17ffWbcOlfLfP-56">
          <mxGeometry x="60" width="60" height="31" as="geometry">
            <mxRectangle width="60" height="31" as="alternateBounds" />
          </mxGeometry>
        </mxCell>
        <mxCell id="bscVMvm17ffWbcOlfLfP-59" value="345" style="connectable=0;recursiveResize=0;strokeColor=inherit;fillColor=inherit;whiteSpace=wrap;html=1;" vertex="1" parent="bscVMvm17ffWbcOlfLfP-56">
          <mxGeometry x="120" width="100" height="31" as="geometry">
            <mxRectangle width="100" height="31" as="alternateBounds" />
          </mxGeometry>
        </mxCell>
        <mxCell id="bscVMvm17ffWbcOlfLfP-60" value="&lt;span style=&quot;font-size: 12px; background-color: rgb(251, 251, 251);&quot;&gt;List of user and score&lt;/span&gt;" style="text;html=1;align=center;verticalAlign=middle;whiteSpace=wrap;rounded=0;fontFamily=Helvetica;fontSize=11;fontColor=default;labelBackgroundColor=default;" vertex="1" parent="1">
          <mxGeometry x="-12810" y="-8950" width="180" height="30" as="geometry" />
        </mxCell>
        <mxCell id="bscVMvm17ffWbcOlfLfP-66" value="" style="edgeStyle=orthogonalEdgeStyle;rounded=0;orthogonalLoop=1;jettySize=auto;html=1;" edge="1" parent="1" source="bscVMvm17ffWbcOlfLfP-63" target="bscVMvm17ffWbcOlfLfP-65">
          <mxGeometry relative="1" as="geometry" />
        </mxCell>
        <mxCell id="bscVMvm17ffWbcOlfLfP-63" value="game end" style="rhombus;whiteSpace=wrap;html=1;fillColor=light-dark(#FFCCCC,var(--ge-dark-color, #121212));rounded=0;" vertex="1" parent="1">
          <mxGeometry x="-12235" y="-8645" width="80" height="80" as="geometry" />
        </mxCell>
        <mxCell id="bscVMvm17ffWbcOlfLfP-65" value="" style="whiteSpace=wrap;html=1;fillColor=light-dark(#FFCCCC,var(--ge-dark-color, #121212));rounded=0;" vertex="1" parent="1">
          <mxGeometry x="-12090" y="-8635" width="135" height="60" as="geometry" />
        </mxCell>
        <mxCell id="bscVMvm17ffWbcOlfLfP-68" style="edgeStyle=orthogonalEdgeStyle;rounded=0;orthogonalLoop=1;jettySize=auto;html=1;entryX=0;entryY=0.5;entryDx=0;entryDy=0;" edge="1" parent="1" source="bscVMvm17ffWbcOlfLfP-67" target="bscVMvm17ffWbcOlfLfP-19">
          <mxGeometry relative="1" as="geometry">
            <mxPoint x="-11870" y="-9130" as="targetPoint" />
          </mxGeometry>
        </mxCell>
        <mxCell id="bscVMvm17ffWbcOlfLfP-67" value="handleGameOver" style="shape=process;whiteSpace=wrap;html=1;backgroundOutline=1;" vertex="1" parent="1">
          <mxGeometry x="-12082.5" y="-8635" width="120" height="60" as="geometry" />
        </mxCell>
        <mxCell id="bscVMvm17ffWbcOlfLfP-70" value="navigate to Home" style="text;html=1;align=center;verticalAlign=middle;resizable=0;points=[];autosize=1;strokeColor=none;fillColor=none;" vertex="1" parent="1">
          <mxGeometry x="-11580" y="-9092" width="120" height="30" as="geometry" />
        </mxCell>
        <mxCell id="bscVMvm17ffWbcOlfLfP-72" value="navigate to game" style="text;html=1;align=center;verticalAlign=middle;resizable=0;points=[];autosize=1;strokeColor=none;fillColor=none;" vertex="1" parent="1">
          <mxGeometry x="-11910" y="-9092" width="120" height="30" as="geometry" />
        </mxCell>
        <mxCell id="bscVMvm17ffWbcOlfLfP-76" style="edgeStyle=orthogonalEdgeStyle;rounded=0;orthogonalLoop=1;jettySize=auto;html=1;exitX=1;exitY=0.25;exitDx=0;exitDy=0;entryX=1;entryY=0;entryDx=0;entryDy=0;" edge="1" parent="1" source="bscVMvm17ffWbcOlfLfP-35" target="bscVMvm17ffWbcOlfLfP-35">
          <mxGeometry relative="1" as="geometry" />
        </mxCell>
        <mxCell id="bscVMvm17ffWbcOlfLfP-77" value="navigate to home" style="text;html=1;align=center;verticalAlign=middle;resizable=0;points=[];autosize=1;strokeColor=none;fillColor=none;" vertex="1" parent="1">
          <mxGeometry x="-11590" y="-9200" width="120" height="30" as="geometry" />
        </mxCell>
        <mxCell id="bscVMvm17ffWbcOlfLfP-78" value="Score" style="swimlane;fontStyle=0;childLayout=stackLayout;horizontal=1;startSize=30;horizontalStack=0;resizeParent=1;resizeParentMax=0;resizeLast=0;collapsible=1;marginBottom=0;whiteSpace=wrap;html=1;fontFamily=Helvetica;fontSize=11;fontColor=default;labelBackgroundColor=default;fillColor=light-dark(#FFE0CE,var(--ge-dark-color, #121212));" vertex="1" parent="1">
          <mxGeometry x="-13870" y="-9640" width="140" height="180" as="geometry" />
        </mxCell>
        <mxCell id="bscVMvm17ffWbcOlfLfP-79" value="_id:string" style="text;strokeColor=none;fillColor=none;align=left;verticalAlign=middle;spacingLeft=4;spacingRight=4;overflow=hidden;points=[[0,0.5],[1,0.5]];portConstraint=eastwest;rotatable=0;whiteSpace=wrap;html=1;fontFamily=Helvetica;fontSize=11;fontColor=default;labelBackgroundColor=default;" vertex="1" parent="bscVMvm17ffWbcOlfLfP-78">
          <mxGeometry y="30" width="140" height="30" as="geometry" />
        </mxCell>
        <mxCell id="bscVMvm17ffWbcOlfLfP-80" value="email:string" style="text;strokeColor=none;fillColor=none;align=left;verticalAlign=middle;spacingLeft=4;spacingRight=4;overflow=hidden;points=[[0,0.5],[1,0.5]];portConstraint=eastwest;rotatable=0;whiteSpace=wrap;html=1;fontFamily=Helvetica;fontSize=11;fontColor=default;labelBackgroundColor=default;" vertex="1" parent="bscVMvm17ffWbcOlfLfP-78">
          <mxGeometry y="60" width="140" height="30" as="geometry" />
        </mxCell>
        <mxCell id="bscVMvm17ffWbcOlfLfP-94" value="username:string" style="text;strokeColor=none;fillColor=none;align=left;verticalAlign=middle;spacingLeft=4;spacingRight=4;overflow=hidden;points=[[0,0.5],[1,0.5]];portConstraint=eastwest;rotatable=0;whiteSpace=wrap;html=1;fontFamily=Helvetica;fontSize=11;fontColor=default;labelBackgroundColor=default;" vertex="1" parent="bscVMvm17ffWbcOlfLfP-78">
          <mxGeometry y="90" width="140" height="30" as="geometry" />
        </mxCell>
        <mxCell id="bscVMvm17ffWbcOlfLfP-81" value="score:number" style="text;strokeColor=none;fillColor=none;align=left;verticalAlign=middle;spacingLeft=4;spacingRight=4;overflow=hidden;points=[[0,0.5],[1,0.5]];portConstraint=eastwest;rotatable=0;whiteSpace=wrap;html=1;fontFamily=Helvetica;fontSize=11;fontColor=default;labelBackgroundColor=default;" vertex="1" parent="bscVMvm17ffWbcOlfLfP-78">
          <mxGeometry y="120" width="140" height="30" as="geometry" />
        </mxCell>
        <mxCell id="bscVMvm17ffWbcOlfLfP-100" value="date:date" style="text;strokeColor=none;fillColor=none;align=left;verticalAlign=middle;spacingLeft=4;spacingRight=4;overflow=hidden;points=[[0,0.5],[1,0.5]];portConstraint=eastwest;rotatable=0;whiteSpace=wrap;html=1;fontFamily=Helvetica;fontSize=11;fontColor=default;labelBackgroundColor=default;" vertex="1" parent="bscVMvm17ffWbcOlfLfP-78">
          <mxGeometry y="150" width="140" height="30" as="geometry" />
        </mxCell>
        <mxCell id="bscVMvm17ffWbcOlfLfP-82" value="User" style="swimlane;fontStyle=0;childLayout=stackLayout;horizontal=1;startSize=30;horizontalStack=0;resizeParent=1;resizeParentMax=0;resizeLast=0;collapsible=1;marginBottom=0;whiteSpace=wrap;html=1;fontFamily=Helvetica;fontSize=11;fontColor=default;labelBackgroundColor=default;fillColor=light-dark(#DDFFBF,var(--ge-dark-color, #121212));" vertex="1" parent="1">
          <mxGeometry x="-13667" y="-9640" width="140" height="180" as="geometry" />
        </mxCell>
        <mxCell id="bscVMvm17ffWbcOlfLfP-83" value="_id:string" style="text;strokeColor=none;fillColor=none;align=left;verticalAlign=middle;spacingLeft=4;spacingRight=4;overflow=hidden;points=[[0,0.5],[1,0.5]];portConstraint=eastwest;rotatable=0;whiteSpace=wrap;html=1;fontFamily=Helvetica;fontSize=11;fontColor=default;labelBackgroundColor=default;" vertex="1" parent="bscVMvm17ffWbcOlfLfP-82">
          <mxGeometry y="30" width="140" height="30" as="geometry" />
        </mxCell>
        <mxCell id="bscVMvm17ffWbcOlfLfP-84" value="username: string" style="text;strokeColor=none;fillColor=none;align=left;verticalAlign=middle;spacingLeft=4;spacingRight=4;overflow=hidden;points=[[0,0.5],[1,0.5]];portConstraint=eastwest;rotatable=0;whiteSpace=wrap;html=1;fontFamily=Helvetica;fontSize=11;fontColor=default;labelBackgroundColor=default;" vertex="1" parent="bscVMvm17ffWbcOlfLfP-82">
          <mxGeometry y="60" width="140" height="30" as="geometry" />
        </mxCell>
        <mxCell id="bscVMvm17ffWbcOlfLfP-86" value="email:string" style="text;strokeColor=none;fillColor=none;align=left;verticalAlign=middle;spacingLeft=4;spacingRight=4;overflow=hidden;points=[[0,0.5],[1,0.5]];portConstraint=eastwest;rotatable=0;whiteSpace=wrap;html=1;fontFamily=Helvetica;fontSize=11;fontColor=default;labelBackgroundColor=default;" vertex="1" parent="bscVMvm17ffWbcOlfLfP-82">
          <mxGeometry y="90" width="140" height="30" as="geometry" />
        </mxCell>
        <mxCell id="bscVMvm17ffWbcOlfLfP-85" value="password:hash" style="text;strokeColor=none;fillColor=none;align=left;verticalAlign=middle;spacingLeft=4;spacingRight=4;overflow=hidden;points=[[0,0.5],[1,0.5]];portConstraint=eastwest;rotatable=0;whiteSpace=wrap;html=1;fontFamily=Helvetica;fontSize=11;fontColor=default;labelBackgroundColor=default;" vertex="1" parent="bscVMvm17ffWbcOlfLfP-82">
          <mxGeometry y="120" width="140" height="30" as="geometry" />
        </mxCell>
        <mxCell id="bscVMvm17ffWbcOlfLfP-101" value="dateTime:date" style="text;strokeColor=none;fillColor=none;align=left;verticalAlign=middle;spacingLeft=4;spacingRight=4;overflow=hidden;points=[[0,0.5],[1,0.5]];portConstraint=eastwest;rotatable=0;whiteSpace=wrap;html=1;fontFamily=Helvetica;fontSize=11;fontColor=default;labelBackgroundColor=default;" vertex="1" parent="bscVMvm17ffWbcOlfLfP-82">
          <mxGeometry y="150" width="140" height="30" as="geometry" />
        </mxCell>
        <mxCell id="bscVMvm17ffWbcOlfLfP-87" style="edgeStyle=orthogonalEdgeStyle;shape=connector;curved=0;rounded=1;orthogonalLoop=1;jettySize=auto;html=1;entryX=0;entryY=0.5;entryDx=0;entryDy=0;dashed=1;strokeColor=default;align=center;verticalAlign=middle;fontFamily=Helvetica;fontSize=11;fontColor=default;labelBackgroundColor=default;endArrow=ERone;endFill=0;startArrow=ERmany;startFill=0;exitX=1;exitY=0.5;exitDx=0;exitDy=0;" edge="1" parent="1" source="bscVMvm17ffWbcOlfLfP-79" target="bscVMvm17ffWbcOlfLfP-83">
          <mxGeometry relative="1" as="geometry" />
        </mxCell>
        <mxCell id="bscVMvm17ffWbcOlfLfP-104" style="edgeStyle=orthogonalEdgeStyle;rounded=0;orthogonalLoop=1;jettySize=auto;html=1;" edge="1" parent="1" source="bscVMvm17ffWbcOlfLfP-106" target="bscVMvm17ffWbcOlfLfP-108">
          <mxGeometry relative="1" as="geometry">
            <mxPoint x="-12990" y="-8440" as="targetPoint" />
            <Array as="points">
              <mxPoint x="-12392" y="-8500" />
              <mxPoint x="-12392" y="-8450" />
            </Array>
          </mxGeometry>
        </mxCell>
        <mxCell id="bscVMvm17ffWbcOlfLfP-105" value="save user score" style="edgeLabel;html=1;align=center;verticalAlign=middle;resizable=0;points=[];" connectable="0" vertex="1" parent="bscVMvm17ffWbcOlfLfP-104">
          <mxGeometry x="0.1965" relative="1" as="geometry">
            <mxPoint as="offset" />
          </mxGeometry>
        </mxCell>
        <mxCell id="bscVMvm17ffWbcOlfLfP-106" value="saveScore" style="shape=process;whiteSpace=wrap;html=1;backgroundOutline=1;" vertex="1" parent="1">
          <mxGeometry x="-12320" y="-8530" width="140" height="60" as="geometry" />
        </mxCell>
        <mxCell id="bscVMvm17ffWbcOlfLfP-107" style="edgeStyle=orthogonalEdgeStyle;rounded=0;orthogonalLoop=1;jettySize=auto;html=1;" edge="1" parent="1" source="bscVMvm17ffWbcOlfLfP-108">
          <mxGeometry relative="1" as="geometry">
            <Array as="points">
              <mxPoint x="-12500" y="-8360" />
            </Array>
            <mxPoint x="-12440" y="-8360" as="targetPoint" />
          </mxGeometry>
        </mxCell>
        <mxCell id="bscVMvm17ffWbcOlfLfP-108" value="score" style="shape=cylinder3;whiteSpace=wrap;html=1;boundedLbl=1;backgroundOutline=1;size=15;" vertex="1" parent="1">
          <mxGeometry x="-12525" y="-8480" width="60" height="80" as="geometry" />
        </mxCell>
        <mxCell id="bscVMvm17ffWbcOlfLfP-109" value="get-high-user-score" style="shape=process;whiteSpace=wrap;html=1;backgroundOutline=1;" vertex="1" parent="1">
          <mxGeometry x="-12320" y="-8450" width="145" height="60" as="geometry" />
        </mxCell>
        <mxCell id="bscVMvm17ffWbcOlfLfP-110" style="edgeStyle=orthogonalEdgeStyle;rounded=0;orthogonalLoop=1;jettySize=auto;html=1;entryX=1;entryY=0.5;entryDx=0;entryDy=0;entryPerimeter=0;" edge="1" parent="1" source="bscVMvm17ffWbcOlfLfP-109" target="bscVMvm17ffWbcOlfLfP-108">
          <mxGeometry relative="1" as="geometry">
            <Array as="points">
              <mxPoint x="-12465" y="-8420" />
            </Array>
          </mxGeometry>
        </mxCell>
        <mxCell id="bscVMvm17ffWbcOlfLfP-111" value="get the higher score&lt;div&gt;of the user&lt;/div&gt;" style="edgeLabel;html=1;align=center;verticalAlign=middle;resizable=0;points=[];" connectable="0" vertex="1" parent="bscVMvm17ffWbcOlfLfP-110">
          <mxGeometry x="0.0571" y="-1" relative="1" as="geometry">
            <mxPoint as="offset" />
          </mxGeometry>
        </mxCell>
        <mxCell id="bscVMvm17ffWbcOlfLfP-112" value="no" style="edgeLabel;html=1;align=center;verticalAlign=middle;resizable=0;points=[];" connectable="0" vertex="1" parent="1">
          <mxGeometry x="-13380" y="-8080" as="geometry">
            <mxPoint x="-63" y="-342" as="offset" />
          </mxGeometry>
        </mxCell>
        <mxCell id="bscVMvm17ffWbcOlfLfP-114" value="usersHighScore" style="shape=process;whiteSpace=wrap;html=1;backgroundOutline=1;" vertex="1" parent="1">
          <mxGeometry x="-12820" y="-8370" width="120" height="60" as="geometry" />
        </mxCell>
        <mxCell id="bscVMvm17ffWbcOlfLfP-115" value="get 10 highest score" style="edgeLabel;html=1;align=center;verticalAlign=middle;resizable=0;points=[];" connectable="0" vertex="1" parent="1">
          <mxGeometry x="-11700" y="-8370" as="geometry">
            <mxPoint x="-893" y="12" as="offset" />
          </mxGeometry>
        </mxCell>
        <mxCell id="bscVMvm17ffWbcOlfLfP-116" style="edgeStyle=orthogonalEdgeStyle;rounded=0;orthogonalLoop=1;jettySize=auto;html=1;entryX=0.375;entryY=1.018;entryDx=0;entryDy=0;entryPerimeter=0;" edge="1" parent="1" source="bscVMvm17ffWbcOlfLfP-114" target="bscVMvm17ffWbcOlfLfP-108">
          <mxGeometry relative="1" as="geometry" />
        </mxCell>
        <mxCell id="bscVMvm17ffWbcOlfLfP-120" style="edgeStyle=orthogonalEdgeStyle;rounded=0;orthogonalLoop=1;jettySize=auto;html=1;" edge="1" parent="1" source="bscVMvm17ffWbcOlfLfP-117">
          <mxGeometry relative="1" as="geometry">
            <mxPoint x="-12420" y="-9130" as="targetPoint" />
          </mxGeometry>
        </mxCell>
        <mxCell id="bscVMvm17ffWbcOlfLfP-117" value="error display" style="rounded=0;whiteSpace=wrap;html=1;" vertex="1" parent="1">
          <mxGeometry x="-12262" y="-9150" width="120" height="40" as="geometry" />
        </mxCell>
        <mxCell id="bscVMvm17ffWbcOlfLfP-119" style="edgeStyle=orthogonalEdgeStyle;rounded=0;orthogonalLoop=1;jettySize=auto;html=1;" edge="1" parent="1" source="bscVMvm17ffWbcOlfLfP-118" target="sQpi-HUl-UVFbco0kwgm-92">
          <mxGeometry relative="1" as="geometry">
            <mxPoint x="-12460" y="-9140" as="targetPoint" />
            <Array as="points">
              <mxPoint x="-12400" y="-8540" />
              <mxPoint x="-12430" y="-8540" />
              <mxPoint x="-12430" y="-9130" />
            </Array>
          </mxGeometry>
        </mxCell>
        <mxCell id="bscVMvm17ffWbcOlfLfP-118" value="if ok" style="rhombus;whiteSpace=wrap;html=1;" vertex="1" parent="1">
          <mxGeometry x="-12440" y="-8400" width="80" height="80" as="geometry" />
        </mxCell>
        <mxCell id="bscVMvm17ffWbcOlfLfP-125" style="edgeStyle=orthogonalEdgeStyle;rounded=0;orthogonalLoop=1;jettySize=auto;html=1;entryX=0.993;entryY=0.617;entryDx=0;entryDy=0;entryPerimeter=0;" edge="1" parent="1" source="bscVMvm17ffWbcOlfLfP-67" target="bscVMvm17ffWbcOlfLfP-106">
          <mxGeometry relative="1" as="geometry">
            <Array as="points">
              <mxPoint x="-12131" y="-8605" />
              <mxPoint x="-12131" y="-8493" />
            </Array>
          </mxGeometry>
        </mxCell>
        <mxCell id="bscVMvm17ffWbcOlfLfP-126" value="save score" style="edgeLabel;html=1;align=center;verticalAlign=middle;resizable=0;points=[];" connectable="0" vertex="1" parent="bscVMvm17ffWbcOlfLfP-125">
          <mxGeometry x="0.8102" y="1" relative="1" as="geometry">
            <mxPoint x="32" y="2" as="offset" />
          </mxGeometry>
        </mxCell>
        <mxCell id="bscVMvm17ffWbcOlfLfP-129" value="clean cookie" style="edgeLabel;html=1;align=center;verticalAlign=middle;resizable=0;points=[];" connectable="0" vertex="1" parent="1">
          <mxGeometry x="-13000" y="-8580" as="geometry">
            <mxPoint x="3" y="-17" as="offset" />
          </mxGeometry>
        </mxCell>
        <mxCell id="bscVMvm17ffWbcOlfLfP-130" style="edgeStyle=orthogonalEdgeStyle;rounded=0;orthogonalLoop=1;jettySize=auto;html=1;entryX=0.452;entryY=1.022;entryDx=0;entryDy=0;entryPerimeter=0;" edge="1" parent="1" source="bscVMvm17ffWbcOlfLfP-118" target="bscVMvm17ffWbcOlfLfP-19">
          <mxGeometry relative="1" as="geometry" />
        </mxCell>
        <mxCell id="bscVMvm17ffWbcOlfLfP-133" value="no" style="edgeLabel;html=1;align=center;verticalAlign=middle;resizable=0;points=[];" connectable="0" vertex="1" parent="1">
          <mxGeometry x="-12460" y="-8600" as="geometry">
            <mxPoint x="29" y="21" as="offset" />
          </mxGeometry>
        </mxCell>
      </root>
    </mxGraphModel>
  </diagram>
</mxfile>
